<svg xmlns="http://www.w3.org/2000/svg" width="18" height="18" viewBox="0 0 18 18" fill="none">
  <path d="M13.061 13.25L13.98 15.566C14.11 15.894 13.868 16.25 13.515 16.25H4.487C4.134 16.25 3.892 15.894 4.022 15.566L4.94 13.25" stroke="#737373" stroke-width="1.5" stroke-linecap="round" stroke-linejoin="round" fill="none" />
  <path d="M11.745 8.49101L10.799 8.17601L10.483 7.22901C10.381 6.92301 9.87399 6.92301 9.77199 7.22901L9.45599 8.17601L8.50999 8.49101C8.35699 8.54201 8.25299 8.68501 8.25299 8.84701C8.25299 9.00901 8.35699 9.15201 8.50999 9.20301L9.45599 9.51801L9.77199 10.465C9.82299 10.618 9.96599 10.721 10.127 10.721C10.288 10.721 10.432 10.617 10.482 10.465L10.798 9.51801L11.744 9.20301C11.897 9.15201 12.001 9.00901 12.001 8.84701C12.001 8.68501 11.898 8.54201 11.745 8.49101Z" fill="#737373" />
  <path d="M2.75101 2.5C3.16521 2.5 3.50101 2.1642 3.50101 1.75C3.50101 1.3358 3.16521 1 2.75101 1C2.33681 1 2.00101 1.3358 2.00101 1.75C2.00101 2.1642 2.33681 2.5 2.75101 2.5Z" fill="#737373" />
  <path d="M16.66 2.99L15.397 2.569L14.976 1.306C14.839 0.898 14.164 0.898 14.027 1.306L13.606 2.569L12.343 2.99C12.139 3.058 12.001 3.249 12.001 3.464C12.001 3.679 12.139 3.87 12.343 3.938L13.606 4.359L14.027 5.622C14.095 5.826 14.287 5.964 14.502 5.964C14.717 5.964 14.908 5.826 14.977 5.622L15.398 4.359L16.661 3.938C16.865 3.87 17.003 3.679 17.003 3.464C17.003 3.249 16.864 3.058 16.66 2.99Z" fill="#737373" />
  <path d="M9.99371 2.3339C9.67051 2.28 9.33961 2.25 9.00101 2.25C5.54901 2.25 2.75101 5.048 2.75101 8.5C2.75101 10.401 3.60001 12.104 4.93901 13.25H13.062C14.402 12.104 15.251 10.401 15.251 8.5C15.251 8.3701 15.2457 8.2416 15.2364 8.1143" stroke="#737373" stroke-width="1.5" stroke-linecap="round" stroke-linejoin="round" fill="none" />
  <path d="M5.75 8.5C5.75 6.708 7.208 5.25 9 5.25" stroke="#737373" stroke-width="1.5" stroke-linecap="round" stroke-linejoin="round" fill="none" />
</svg>
