<svg xmlns="http://www.w3.org/2000/svg" width="18" height="18" viewBox="0 0 18 18" fill="none">
  <path d="M13.25 2.75H4.75C3.645 2.75 2.75 3.645 2.75 4.75V13.25C2.75 14.355 3.645 15.25 4.75 15.25H13.25C14.355 15.25 15.25 14.355 15.25 13.25V4.75C15.25 3.645 14.355 2.75 13.25 2.75Z" stroke="#737373" stroke-width="1.5" stroke-linecap="round" stroke-linejoin="round" fill="none" />
  <path d="M4.75 15.25V16.75" stroke="#737373" stroke-width="1.5" stroke-linecap="round" stroke-linejoin="round" fill="none" />
  <path d="M13.25 15.25V16.75" stroke="#737373" stroke-width="1.5" stroke-linecap="round" stroke-linejoin="round" fill="none" />
  <path d="M9 11C10.105 11 11 10.105 11 9C11 7.895 10.105 7 9 7C7.895 7 7 7.895 7 9C7 10.105 7.895 11 9 11Z" stroke="#737373" stroke-width="1.5" stroke-linecap="round" stroke-linejoin="round" fill="none" />
  <path d="M10.414 7.586L11.75 6.25" stroke="#737373" stroke-width="1.5" stroke-linecap="round" stroke-linejoin="round" fill="none" />
  <path d="M10.414 10.414L11.75 11.75" stroke="#737373" stroke-width="1.5" stroke-linecap="round" stroke-linejoin="round" fill="none" />
  <path d="M7.586 10.414L6.25 11.75" stroke="#737373" stroke-width="1.5" stroke-linecap="round" stroke-linejoin="round" fill="none" />
  <path d="M7.586 7.586L6.25 6.25" stroke="#737373" stroke-width="1.5" stroke-linecap="round" stroke-linejoin="round" fill="none" />
</svg>
